<mxfile host="app.diagrams.net">
  <diagram name="Workflow">
    <mxGraphModel dx="638" dy="599" grid="1" gridSize="10" guides="1" tooltips="1" connect="1" arrows="1" fold="1" page="1" pageScale="1" pageWidth="827" pageHeight="1169" math="0" shadow="0">
      <root>
        <mxCell id="0"/>
        <mxCell id="1" parent="0"/>
        <mxCell id="2" value="Moodle Operator" style="rounded=1;fillColor=#dae8fc;" vertex="1" parent="1">
          <mxGeometry x="60" y="20" width="140" height="60" as="geometry"/>
        </mxCell>
        <mxCell id="3" value="OpenTelemetry Collector" style="rounded=1;fillColor=#fff2cc;" vertex="1" parent="1">
          <mxGeometry x="300" y="20" width="160" height="60" as="geometry"/>
        </mxCell>
        <mxCell id="4" value="Prometheus" style="rounded=1;fillColor=#e1d5e7;" vertex="1" parent="1">
          <mxGeometry x="180" y="160" width="120" height="60" as="geometry"/>
        </mxCell>
        <mxCell id="5" value="Browser/User" style="ellipse;fillColor=#d5e8d4;" vertex="1" parent="1">
          <mxGeometry x="60" y="160" width="100" height="60" as="geometry"/>
        </mxCell>
        <mxCell id="6" edge="1" parent="1" source="2" target="3" value="OTLP gRPC 4317">
          <mxGeometry relative="1" as="geometry"/>
        </mxCell>
        <mxCell id="7" edge="1" parent="1" source="2" target="4" value="HTTP /metrics 9090">
          <mxGeometry relative="1" as="geometry"/>
        </mxCell>
        <mxCell id="8" edge="1" parent="1" source="3" target="4" value="Prometheus scrape 8889">
          <mxGeometry relative="1" as="geometry"/>
        </mxCell>
        <mxCell id="9" edge="1" parent="1" source="4" target="5" value="UI Query">
          <mxGeometry relative="1" as="geometry"/>
        </mxCell>
      </root>
    </mxGraphModel>
  </diagram>
</mxfile>